<svg width="22" height="22" viewBox="0 0 22 22" fill="none" xmlns="http://www.w3.org/2000/svg">
<path d="M11.5 5.6095C8.5 5.6095 6.10938 8.047 6.10938 11.0001C6.10938 14.0001 8.5 16.3907 11.5 16.3907C14.4531 16.3907 16.8906 14.0001 16.8906 11.0001C16.8906 8.047 14.4531 5.6095 11.5 5.6095ZM11.5 14.5157C9.57812 14.5157 7.98438 12.9689 7.98438 11.0001C7.98438 9.07825 9.53125 7.53137 11.5 7.53137C13.4219 7.53137 14.9688 9.07825 14.9688 11.0001C14.9688 12.9689 13.4219 14.5157 11.5 14.5157ZM18.3438 5.422C18.3438 4.71887 17.7812 4.15637 17.0781 4.15637C16.375 4.15637 15.8125 4.71887 15.8125 5.422C15.8125 6.12512 16.375 6.68762 17.0781 6.68762C17.7812 6.68762 18.3438 6.12512 18.3438 5.422ZM21.9062 6.68762C21.8125 5.00012 21.4375 3.50012 20.2188 2.28137C19 1.06262 17.5 0.687622 15.8125 0.593872C14.0781 0.500122 8.875 0.500122 7.14062 0.593872C5.45312 0.687622 4 1.06262 2.73438 2.28137C1.51562 3.50012 1.14062 5.00012 1.04688 6.68762C0.953125 8.422 0.953125 13.6251 1.04688 15.3595C1.14062 17.047 1.51562 18.5001 2.73438 19.7657C4 20.9845 5.45312 21.3595 7.14062 21.4532C8.875 21.547 14.0781 21.547 15.8125 21.4532C17.5 21.3595 19 20.9845 20.2188 19.7657C21.4375 18.5001 21.8125 17.047 21.9062 15.3595C22 13.6251 22 8.422 21.9062 6.68762ZM19.6562 17.1876C19.3281 18.1251 18.5781 18.8282 17.6875 19.2032C16.2812 19.7657 13 19.6251 11.5 19.6251C9.95312 19.6251 6.67188 19.7657 5.3125 19.2032C4.375 18.8282 3.67188 18.1251 3.29688 17.1876C2.73438 15.8282 2.875 12.547 2.875 11.0001C2.875 9.50012 2.73438 6.21887 3.29688 4.81262C3.67188 3.922 4.375 3.21887 5.3125 2.84387C6.67188 2.28137 9.95312 2.422 11.5 2.422C13 2.422 16.2812 2.28137 17.6875 2.84387C18.5781 3.172 19.2812 3.922 19.6562 4.81262C20.2188 6.21887 20.0781 9.50012 20.0781 11.0001C20.0781 12.547 20.2188 15.8282 19.6562 17.1876Z" fill="#477BFF"/>
</svg>
