<svg xmlns="http://www.w3.org/2000/svg" xmlns:xlink="http://www.w3.org/1999/xlink" width="315" zoomAndPan="magnify" viewBox="0 0 236.25 72.749999" height="97" preserveAspectRatio="xMidYMid meet" version="1.0"><defs><g/><clipPath id="836a7106b7"><path d="M 11 1 L 40 1 L 40 12 L 11 12 Z M 11 1 " clip-rule="nonzero"/></clipPath><clipPath id="46322e4c05"><path d="M 34.921875 10.835938 C 29.765625 5.363281 21.472656 5.363281 16.316406 10.835938 C 15.316406 11.894531 13.644531 11.945312 12.585938 10.945312 C 11.523438 9.945312 11.472656 8.273438 12.476562 7.210938 C 19.714844 -0.46875 31.523438 -0.46875 38.765625 7.210938 C 39.765625 8.273438 39.71875 9.945312 38.65625 10.945312 C 37.59375 11.945312 35.921875 11.894531 34.921875 10.835938 Z M 34.921875 10.835938 " clip-rule="nonzero"/></clipPath><linearGradient x1="60" gradientTransform="matrix(0.660231, 0, 0, 0.660231, -13.993421, -5.152443)" y1="7.804001" x2="60" gradientUnits="userSpaceOnUse" y2="25.895496" id="06885f0262"><stop stop-opacity="1" stop-color="rgb(23.498535%, 78.799438%, 75.299072%)" offset="0"/><stop stop-opacity="1" stop-color="rgb(23.498535%, 78.790283%, 75.306702%)" offset="0.125"/><stop stop-opacity="1" stop-color="rgb(23.513794%, 78.625488%, 75.453186%)" offset="0.1875"/><stop stop-opacity="1" stop-color="rgb(23.54126%, 78.314209%, 75.72937%)" offset="0.25"/><stop stop-opacity="1" stop-color="rgb(23.5672%, 78.00293%, 76.005554%)" offset="0.3125"/><stop stop-opacity="1" stop-color="rgb(23.594666%, 77.69165%, 76.281738%)" offset="0.375"/><stop stop-opacity="1" stop-color="rgb(23.622131%, 77.380371%, 76.559448%)" offset="0.4375"/><stop stop-opacity="1" stop-color="rgb(23.648071%, 77.069092%, 76.835632%)" offset="0.5"/><stop stop-opacity="1" stop-color="rgb(23.675537%, 76.757812%, 77.111816%)" offset="0.5625"/><stop stop-opacity="1" stop-color="rgb(23.701477%, 76.446533%, 77.388%)" offset="0.625"/><stop stop-opacity="1" stop-color="rgb(23.728943%, 76.135254%, 77.66571%)" offset="0.6875"/><stop stop-opacity="1" stop-color="rgb(23.756409%, 75.823975%, 77.941895%)" offset="0.75"/><stop stop-opacity="1" stop-color="rgb(23.782349%, 75.512695%, 78.218079%)" offset="0.8125"/><stop stop-opacity="1" stop-color="rgb(23.809814%, 75.201416%, 78.494263%)" offset="0.875"/><stop stop-opacity="1" stop-color="rgb(23.835754%, 74.890137%, 78.770447%)" offset="0.9375"/><stop stop-opacity="1" stop-color="rgb(23.86322%, 74.580383%, 79.048157%)" offset="1"/></linearGradient><clipPath id="9f75a5e7ab"><path d="M 17 9 L 34 9 L 34 18 L 17 18 Z M 17 9 " clip-rule="nonzero"/></clipPath><clipPath id="139af7e5c6"><path d="M 28.851562 16.464844 C 27.046875 14.550781 24.191406 14.550781 22.386719 16.464844 C 21.386719 17.527344 19.714844 17.578125 18.65625 16.574219 C 17.59375 15.574219 17.542969 13.902344 18.546875 12.84375 C 22.433594 8.71875 28.808594 8.71875 32.695312 12.84375 C 33.695312 13.902344 33.648438 15.574219 32.585938 16.574219 C 31.523438 17.578125 29.851562 17.527344 28.851562 16.464844 Z M 28.851562 16.464844 " clip-rule="nonzero"/></clipPath><linearGradient x1="60" gradientTransform="matrix(0.660231, 0, 0, 0.660231, -13.993421, -5.152443)" y1="21.008097" x2="60" gradientUnits="userSpaceOnUse" y2="34.425896" id="7748f9c8df"><stop stop-opacity="1" stop-color="rgb(23.760986%, 75.769043%, 77.990723%)" offset="0"/><stop stop-opacity="1" stop-color="rgb(23.770142%, 75.653076%, 78.092957%)" offset="0.0625"/><stop stop-opacity="1" stop-color="rgb(23.789978%, 75.422668%, 78.29895%)" offset="0.125"/><stop stop-opacity="1" stop-color="rgb(23.809814%, 75.192261%, 78.503418%)" offset="0.1875"/><stop stop-opacity="1" stop-color="rgb(23.829651%, 74.960327%, 78.709412%)" offset="0.25"/><stop stop-opacity="1" stop-color="rgb(23.849487%, 74.729919%, 78.913879%)" offset="0.3125"/><stop stop-opacity="1" stop-color="rgb(23.869324%, 74.499512%, 79.118347%)" offset="0.375"/><stop stop-opacity="1" stop-color="rgb(23.88916%, 74.269104%, 79.324341%)" offset="0.4375"/><stop stop-opacity="1" stop-color="rgb(23.908997%, 74.03717%, 79.528809%)" offset="0.5"/><stop stop-opacity="1" stop-color="rgb(23.928833%, 73.806763%, 79.734802%)" offset="0.5625"/><stop stop-opacity="1" stop-color="rgb(23.948669%, 73.576355%, 79.93927%)" offset="0.625"/><stop stop-opacity="1" stop-color="rgb(23.970032%, 73.344421%, 80.143738%)" offset="0.6875"/><stop stop-opacity="1" stop-color="rgb(23.989868%, 73.114014%, 80.349731%)" offset="0.75"/><stop stop-opacity="1" stop-color="rgb(24.009705%, 72.883606%, 80.554199%)" offset="0.8125"/><stop stop-opacity="1" stop-color="rgb(24.029541%, 72.653198%, 80.760193%)" offset="0.875"/><stop stop-opacity="1" stop-color="rgb(24.049377%, 72.421265%, 80.964661%)" offset="0.9375"/><stop stop-opacity="1" stop-color="rgb(24.069214%, 72.190857%, 81.169128%)" offset="1"/></linearGradient><clipPath id="911e46b20a"><path d="M 17 36 L 23 36 L 23 59 L 17 59 Z M 17 36 " clip-rule="nonzero"/></clipPath><clipPath id="7b38a5c45c"><path d="M 20.339844 58.890625 C 18.878906 58.890625 17.699219 57.707031 17.699219 56.25 L 17.699219 39.082031 C 17.699219 37.625 18.878906 36.441406 20.339844 36.441406 C 21.796875 36.441406 22.980469 37.625 22.980469 39.082031 L 22.980469 56.25 C 22.980469 57.707031 21.796875 58.890625 20.339844 58.890625 Z M 20.339844 58.890625 " clip-rule="nonzero"/></clipPath><linearGradient x1="60" gradientTransform="matrix(0.660231, 0, 0, 0.660231, -13.993421, -5.152443)" y1="62.999994" x2="60" gradientUnits="userSpaceOnUse" y2="96.999992" id="ad78a8ef41"><stop stop-opacity="1" stop-color="rgb(24.758911%, 64.21051%, 88.259888%)" offset="0"/><stop stop-opacity="1" stop-color="rgb(24.771118%, 64.064026%, 88.389587%)" offset="0.03125"/><stop stop-opacity="1" stop-color="rgb(24.795532%, 63.772583%, 88.650513%)" offset="0.0625"/><stop stop-opacity="1" stop-color="rgb(24.821472%, 63.479614%, 88.909912%)" offset="0.09375"/><stop stop-opacity="1" stop-color="rgb(24.845886%, 63.186646%, 89.169312%)" offset="0.125"/><stop stop-opacity="1" stop-color="rgb(24.871826%, 62.895203%, 89.430237%)" offset="0.15625"/><stop stop-opacity="1" stop-color="rgb(24.897766%, 62.602234%, 89.689636%)" offset="0.1875"/><stop stop-opacity="1" stop-color="rgb(24.92218%, 62.309265%, 89.949036%)" offset="0.21875"/><stop stop-opacity="1" stop-color="rgb(24.94812%, 62.017822%, 90.208435%)" offset="0.25"/><stop stop-opacity="1" stop-color="rgb(24.972534%, 61.724854%, 90.46936%)" offset="0.28125"/><stop stop-opacity="1" stop-color="rgb(24.998474%, 61.431885%, 90.72876%)" offset="0.3125"/><stop stop-opacity="1" stop-color="rgb(25.022888%, 61.140442%, 90.988159%)" offset="0.34375"/><stop stop-opacity="1" stop-color="rgb(25.048828%, 60.847473%, 91.249084%)" offset="0.375"/><stop stop-opacity="1" stop-color="rgb(25.073242%, 60.554504%, 91.508484%)" offset="0.40625"/><stop stop-opacity="1" stop-color="rgb(25.099182%, 60.263062%, 91.767883%)" offset="0.4375"/><stop stop-opacity="1" stop-color="rgb(25.123596%, 59.970093%, 92.028809%)" offset="0.46875"/><stop stop-opacity="1" stop-color="rgb(25.149536%, 59.677124%, 92.288208%)" offset="0.5"/><stop stop-opacity="1" stop-color="rgb(25.175476%, 59.385681%, 92.547607%)" offset="0.53125"/><stop stop-opacity="1" stop-color="rgb(25.19989%, 59.092712%, 92.807007%)" offset="0.5625"/><stop stop-opacity="1" stop-color="rgb(25.22583%, 58.80127%, 93.067932%)" offset="0.59375"/><stop stop-opacity="1" stop-color="rgb(25.250244%, 58.508301%, 93.327332%)" offset="0.625"/><stop stop-opacity="1" stop-color="rgb(25.276184%, 58.215332%, 93.586731%)" offset="0.65625"/><stop stop-opacity="1" stop-color="rgb(25.300598%, 57.923889%, 93.847656%)" offset="0.6875"/><stop stop-opacity="1" stop-color="rgb(25.326538%, 57.63092%, 94.107056%)" offset="0.71875"/><stop stop-opacity="1" stop-color="rgb(25.350952%, 57.337952%, 94.366455%)" offset="0.75"/><stop stop-opacity="1" stop-color="rgb(25.376892%, 57.046509%, 94.625854%)" offset="0.78125"/><stop stop-opacity="1" stop-color="rgb(25.401306%, 56.75354%, 94.88678%)" offset="0.8125"/><stop stop-opacity="1" stop-color="rgb(25.427246%, 56.460571%, 95.146179%)" offset="0.84375"/><stop stop-opacity="1" stop-color="rgb(25.453186%, 56.169128%, 95.405579%)" offset="0.875"/><stop stop-opacity="1" stop-color="rgb(25.4776%, 55.87616%, 95.666504%)" offset="0.90625"/><stop stop-opacity="1" stop-color="rgb(25.50354%, 55.583191%, 95.925903%)" offset="0.9375"/><stop stop-opacity="1" stop-color="rgb(25.527954%, 55.291748%, 96.185303%)" offset="0.96875"/><stop stop-opacity="1" stop-color="rgb(25.553894%, 54.998779%, 96.444702%)" offset="1"/></linearGradient><clipPath id="dd401a4fae"><path d="M 28 36 L 34 36 L 34 59 L 28 59 Z M 28 36 " clip-rule="nonzero"/></clipPath><clipPath id="1d6d81c0ac"><path d="M 28.261719 56.25 C 28.261719 57.707031 29.445312 58.890625 30.902344 58.890625 C 32.359375 58.890625 33.542969 57.707031 33.542969 56.25 L 33.542969 39.082031 C 33.542969 37.625 32.359375 36.441406 30.902344 36.441406 C 29.445312 36.441406 28.261719 37.625 28.261719 39.082031 Z M 28.261719 56.25 " clip-rule="nonzero"/></clipPath><linearGradient x1="60" gradientTransform="matrix(0.660231, 0, 0, 0.660231, -13.993421, -5.152443)" y1="62.999994" x2="60" gradientUnits="userSpaceOnUse" y2="96.999992" id="91015e2d32"><stop stop-opacity="1" stop-color="rgb(24.758911%, 64.21051%, 88.259888%)" offset="0"/><stop stop-opacity="1" stop-color="rgb(24.771118%, 64.064026%, 88.389587%)" offset="0.03125"/><stop stop-opacity="1" stop-color="rgb(24.795532%, 63.772583%, 88.650513%)" offset="0.0625"/><stop stop-opacity="1" stop-color="rgb(24.821472%, 63.479614%, 88.909912%)" offset="0.09375"/><stop stop-opacity="1" stop-color="rgb(24.845886%, 63.186646%, 89.169312%)" offset="0.125"/><stop stop-opacity="1" stop-color="rgb(24.871826%, 62.895203%, 89.430237%)" offset="0.15625"/><stop stop-opacity="1" stop-color="rgb(24.897766%, 62.602234%, 89.689636%)" offset="0.1875"/><stop stop-opacity="1" stop-color="rgb(24.92218%, 62.309265%, 89.949036%)" offset="0.21875"/><stop stop-opacity="1" stop-color="rgb(24.94812%, 62.017822%, 90.208435%)" offset="0.25"/><stop stop-opacity="1" stop-color="rgb(24.972534%, 61.724854%, 90.46936%)" offset="0.28125"/><stop stop-opacity="1" stop-color="rgb(24.998474%, 61.431885%, 90.72876%)" offset="0.3125"/><stop stop-opacity="1" stop-color="rgb(25.022888%, 61.140442%, 90.988159%)" offset="0.34375"/><stop stop-opacity="1" stop-color="rgb(25.048828%, 60.847473%, 91.249084%)" offset="0.375"/><stop stop-opacity="1" stop-color="rgb(25.073242%, 60.554504%, 91.508484%)" offset="0.40625"/><stop stop-opacity="1" stop-color="rgb(25.099182%, 60.263062%, 91.767883%)" offset="0.4375"/><stop stop-opacity="1" stop-color="rgb(25.123596%, 59.970093%, 92.028809%)" offset="0.46875"/><stop stop-opacity="1" stop-color="rgb(25.149536%, 59.677124%, 92.288208%)" offset="0.5"/><stop stop-opacity="1" stop-color="rgb(25.175476%, 59.385681%, 92.547607%)" offset="0.53125"/><stop stop-opacity="1" stop-color="rgb(25.19989%, 59.092712%, 92.807007%)" offset="0.5625"/><stop stop-opacity="1" stop-color="rgb(25.22583%, 58.80127%, 93.067932%)" offset="0.59375"/><stop stop-opacity="1" stop-color="rgb(25.250244%, 58.508301%, 93.327332%)" offset="0.625"/><stop stop-opacity="1" stop-color="rgb(25.276184%, 58.215332%, 93.586731%)" offset="0.65625"/><stop stop-opacity="1" stop-color="rgb(25.300598%, 57.923889%, 93.847656%)" offset="0.6875"/><stop stop-opacity="1" stop-color="rgb(25.326538%, 57.63092%, 94.107056%)" offset="0.71875"/><stop stop-opacity="1" stop-color="rgb(25.350952%, 57.337952%, 94.366455%)" offset="0.75"/><stop stop-opacity="1" stop-color="rgb(25.376892%, 57.046509%, 94.625854%)" offset="0.78125"/><stop stop-opacity="1" stop-color="rgb(25.401306%, 56.75354%, 94.88678%)" offset="0.8125"/><stop stop-opacity="1" stop-color="rgb(25.427246%, 56.460571%, 95.146179%)" offset="0.84375"/><stop stop-opacity="1" stop-color="rgb(25.453186%, 56.169128%, 95.405579%)" offset="0.875"/><stop stop-opacity="1" stop-color="rgb(25.4776%, 55.87616%, 95.666504%)" offset="0.90625"/><stop stop-opacity="1" stop-color="rgb(25.50354%, 55.583191%, 95.925903%)" offset="0.9375"/><stop stop-opacity="1" stop-color="rgb(25.527954%, 55.291748%, 96.185303%)" offset="0.96875"/><stop stop-opacity="1" stop-color="rgb(25.553894%, 54.998779%, 96.444702%)" offset="1"/></linearGradient><clipPath id="311926f14f"><path d="M 1 18 L 51 18 L 51 69 L 1 69 Z M 1 18 " clip-rule="nonzero"/></clipPath><clipPath id="0a5e8b4903"><path d="M 6.472656 32.480469 C 3.558594 32.480469 1.191406 30.117188 1.191406 27.199219 L 1.191406 23.898438 C 1.191406 20.980469 3.558594 18.617188 6.472656 18.617188 L 17.699219 18.617188 C 19.15625 18.617188 20.339844 19.796875 20.339844 21.257812 C 20.339844 22.714844 19.15625 23.898438 17.699219 23.898438 L 6.472656 23.898438 L 6.472656 27.199219 L 44.765625 27.199219 L 44.765625 23.898438 L 33.542969 23.898438 C 32.085938 23.898438 30.902344 22.714844 30.902344 21.257812 C 30.902344 19.796875 32.085938 18.617188 33.542969 18.617188 L 44.765625 18.617188 C 47.683594 18.617188 50.050781 20.980469 50.050781 23.898438 L 50.050781 27.199219 C 50.050781 30.117188 47.683594 32.480469 44.765625 32.480469 L 44.105469 32.480469 L 44.105469 65.492188 C 44.105469 66.949219 42.925781 68.132812 41.464844 68.132812 L 9.773438 68.132812 C 8.316406 68.132812 7.132812 66.949219 7.132812 65.492188 L 7.132812 32.480469 Z M 12.414062 32.480469 L 12.414062 62.851562 L 38.824219 62.851562 L 38.824219 32.480469 Z M 12.414062 32.480469 " clip-rule="evenodd"/></clipPath><linearGradient x1="60" gradientTransform="matrix(0.660231, 0, 0, 0.660231, -13.993421, -5.152443)" y1="35.999996" x2="60" gradientUnits="userSpaceOnUse" y2="110.999991" id="e58c37a1e3"><stop stop-opacity="1" stop-color="rgb(24.116516%, 71.643066%, 81.65741%)" offset="0"/><stop stop-opacity="1" stop-color="rgb(24.130249%, 71.481323%, 81.800842%)" offset="0.015625"/><stop stop-opacity="1" stop-color="rgb(24.159241%, 71.157837%, 82.087708%)" offset="0.03125"/><stop stop-opacity="1" stop-color="rgb(24.186707%, 70.835876%, 82.374573%)" offset="0.046875"/><stop stop-opacity="1" stop-color="rgb(24.214172%, 70.513916%, 82.659912%)" offset="0.0625"/><stop stop-opacity="1" stop-color="rgb(24.241638%, 70.19043%, 82.946777%)" offset="0.078125"/><stop stop-opacity="1" stop-color="rgb(24.27063%, 69.868469%, 83.233643%)" offset="0.09375"/><stop stop-opacity="1" stop-color="rgb(24.298096%, 69.544983%, 83.520508%)" offset="0.109375"/><stop stop-opacity="1" stop-color="rgb(24.325562%, 69.223022%, 83.807373%)" offset="0.125"/><stop stop-opacity="1" stop-color="rgb(24.353027%, 68.901062%, 84.094238%)" offset="0.140625"/><stop stop-opacity="1" stop-color="rgb(24.382019%, 68.577576%, 84.379578%)" offset="0.15625"/><stop stop-opacity="1" stop-color="rgb(24.409485%, 68.255615%, 84.666443%)" offset="0.171875"/><stop stop-opacity="1" stop-color="rgb(24.436951%, 67.933655%, 84.953308%)" offset="0.1875"/><stop stop-opacity="1" stop-color="rgb(24.464417%, 67.610168%, 85.240173%)" offset="0.203125"/><stop stop-opacity="1" stop-color="rgb(24.493408%, 67.288208%, 85.527039%)" offset="0.21875"/><stop stop-opacity="1" stop-color="rgb(24.520874%, 66.964722%, 85.812378%)" offset="0.234375"/><stop stop-opacity="1" stop-color="rgb(24.54834%, 66.642761%, 86.099243%)" offset="0.25"/><stop stop-opacity="1" stop-color="rgb(24.575806%, 66.320801%, 86.386108%)" offset="0.265625"/><stop stop-opacity="1" stop-color="rgb(24.604797%, 65.997314%, 86.672974%)" offset="0.28125"/><stop stop-opacity="1" stop-color="rgb(24.632263%, 65.675354%, 86.959839%)" offset="0.296875"/><stop stop-opacity="1" stop-color="rgb(24.659729%, 65.351868%, 87.246704%)" offset="0.3125"/><stop stop-opacity="1" stop-color="rgb(24.687195%, 65.029907%, 87.532043%)" offset="0.328125"/><stop stop-opacity="1" stop-color="rgb(24.716187%, 64.707947%, 87.818909%)" offset="0.34375"/><stop stop-opacity="1" stop-color="rgb(24.743652%, 64.38446%, 88.105774%)" offset="0.359375"/><stop stop-opacity="1" stop-color="rgb(24.771118%, 64.0625%, 88.392639%)" offset="0.375"/><stop stop-opacity="1" stop-color="rgb(24.798584%, 63.739014%, 88.679504%)" offset="0.390625"/><stop stop-opacity="1" stop-color="rgb(24.827576%, 63.417053%, 88.964844%)" offset="0.40625"/><stop stop-opacity="1" stop-color="rgb(24.855042%, 63.095093%, 89.251709%)" offset="0.421875"/><stop stop-opacity="1" stop-color="rgb(24.882507%, 62.771606%, 89.538574%)" offset="0.4375"/><stop stop-opacity="1" stop-color="rgb(24.909973%, 62.449646%, 89.825439%)" offset="0.453125"/><stop stop-opacity="1" stop-color="rgb(24.938965%, 62.127686%, 90.112305%)" offset="0.46875"/><stop stop-opacity="1" stop-color="rgb(24.966431%, 61.804199%, 90.39917%)" offset="0.484375"/><stop stop-opacity="1" stop-color="rgb(24.993896%, 61.482239%, 90.684509%)" offset="0.5"/><stop stop-opacity="1" stop-color="rgb(25.021362%, 61.158752%, 90.971375%)" offset="0.515625"/><stop stop-opacity="1" stop-color="rgb(25.050354%, 60.836792%, 91.25824%)" offset="0.53125"/><stop stop-opacity="1" stop-color="rgb(25.07782%, 60.514832%, 91.545105%)" offset="0.546875"/><stop stop-opacity="1" stop-color="rgb(25.105286%, 60.191345%, 91.83197%)" offset="0.5625"/><stop stop-opacity="1" stop-color="rgb(25.132751%, 59.869385%, 92.11731%)" offset="0.578125"/><stop stop-opacity="1" stop-color="rgb(25.161743%, 59.545898%, 92.404175%)" offset="0.59375"/><stop stop-opacity="1" stop-color="rgb(25.189209%, 59.223938%, 92.69104%)" offset="0.609375"/><stop stop-opacity="1" stop-color="rgb(25.216675%, 58.901978%, 92.977905%)" offset="0.625"/><stop stop-opacity="1" stop-color="rgb(25.244141%, 58.578491%, 93.264771%)" offset="0.640625"/><stop stop-opacity="1" stop-color="rgb(25.273132%, 58.256531%, 93.551636%)" offset="0.65625"/><stop stop-opacity="1" stop-color="rgb(25.300598%, 57.933044%, 93.836975%)" offset="0.671875"/><stop stop-opacity="1" stop-color="rgb(25.328064%, 57.611084%, 94.12384%)" offset="0.6875"/><stop stop-opacity="1" stop-color="rgb(25.35553%, 57.289124%, 94.410706%)" offset="0.703125"/><stop stop-opacity="1" stop-color="rgb(25.384521%, 56.965637%, 94.697571%)" offset="0.71875"/><stop stop-opacity="1" stop-color="rgb(25.411987%, 56.643677%, 94.984436%)" offset="0.734375"/><stop stop-opacity="1" stop-color="rgb(25.439453%, 56.32019%, 95.269775%)" offset="0.75"/><stop stop-opacity="1" stop-color="rgb(25.466919%, 55.99823%, 95.556641%)" offset="0.765625"/><stop stop-opacity="1" stop-color="rgb(25.495911%, 55.67627%, 95.843506%)" offset="0.78125"/><stop stop-opacity="1" stop-color="rgb(25.523376%, 55.352783%, 96.130371%)" offset="0.796875"/><stop stop-opacity="1" stop-color="rgb(25.550842%, 55.030823%, 96.417236%)" offset="0.8125"/><stop stop-opacity="1" stop-color="rgb(25.578308%, 54.708862%, 96.704102%)" offset="0.828125"/><stop stop-opacity="1" stop-color="rgb(25.6073%, 54.385376%, 96.989441%)" offset="0.84375"/><stop stop-opacity="1" stop-color="rgb(25.634766%, 54.063416%, 97.276306%)" offset="0.859375"/><stop stop-opacity="1" stop-color="rgb(25.662231%, 53.739929%, 97.563171%)" offset="0.875"/><stop stop-opacity="1" stop-color="rgb(25.689697%, 53.417969%, 97.850037%)" offset="0.890625"/><stop stop-opacity="1" stop-color="rgb(25.718689%, 53.096008%, 98.136902%)" offset="0.90625"/><stop stop-opacity="1" stop-color="rgb(25.746155%, 52.772522%, 98.422241%)" offset="0.921875"/><stop stop-opacity="1" stop-color="rgb(25.773621%, 52.450562%, 98.709106%)" offset="0.9375"/><stop stop-opacity="1" stop-color="rgb(25.801086%, 52.127075%, 98.995972%)" offset="0.953125"/><stop stop-opacity="1" stop-color="rgb(25.830078%, 51.805115%, 99.282837%)" offset="0.96875"/><stop stop-opacity="1" stop-color="rgb(25.857544%, 51.483154%, 99.569702%)" offset="0.984375"/><stop stop-opacity="1" stop-color="rgb(25.88501%, 51.159668%, 99.855042%)" offset="1"/></linearGradient><clipPath id="630a75c39d"><path d="M 22 18 L 29 18 L 29 24 L 22 24 Z M 22 18 " clip-rule="nonzero"/></clipPath><clipPath id="06e2f98a6b"><path d="M 25.621094 23.898438 C 27.078125 23.898438 28.261719 22.714844 28.261719 21.257812 C 28.261719 19.796875 27.078125 18.617188 25.621094 18.617188 C 24.160156 18.617188 22.980469 19.796875 22.980469 21.257812 C 22.980469 22.714844 24.160156 23.898438 25.621094 23.898438 Z M 25.621094 23.898438 " clip-rule="nonzero"/></clipPath><linearGradient x1="60" gradientTransform="matrix(0.660231, 0, 0, 0.660231, -13.993421, -5.152443)" y1="35.999996" x2="60" gradientUnits="userSpaceOnUse" y2="43.999995" id="62a5f4fde3"><stop stop-opacity="1" stop-color="rgb(24.116516%, 71.643066%, 81.65741%)" offset="0"/><stop stop-opacity="1" stop-color="rgb(24.128723%, 71.504211%, 81.77948%)" offset="0.125"/><stop stop-opacity="1" stop-color="rgb(24.153137%, 71.229553%, 82.023621%)" offset="0.25"/><stop stop-opacity="1" stop-color="rgb(24.176025%, 70.954895%, 82.269287%)" offset="0.375"/><stop stop-opacity="1" stop-color="rgb(24.200439%, 70.678711%, 82.513428%)" offset="0.5"/><stop stop-opacity="1" stop-color="rgb(24.223328%, 70.404053%, 82.757568%)" offset="0.625"/><stop stop-opacity="1" stop-color="rgb(24.247742%, 70.129395%, 83.003235%)" offset="0.75"/><stop stop-opacity="1" stop-color="rgb(24.27063%, 69.85321%, 83.247375%)" offset="0.875"/><stop stop-opacity="1" stop-color="rgb(24.295044%, 69.578552%, 83.491516%)" offset="1"/></linearGradient></defs><g clip-path="url(#836a7106b7)"><g clip-path="url(#46322e4c05)"><path fill="url(#06885f0262)" d="M 11.472656 0 L 11.472656 11.945312 L 39.765625 11.945312 L 39.765625 0 Z M 11.472656 0 " fill-rule="nonzero"/></g></g><g clip-path="url(#9f75a5e7ab)"><g clip-path="url(#139af7e5c6)"><path fill="url(#7748f9c8df)" d="M 17.542969 8.71875 L 17.542969 17.578125 L 33.695312 17.578125 L 33.695312 8.71875 Z M 17.542969 8.71875 " fill-rule="nonzero"/></g></g><g clip-path="url(#911e46b20a)"><g clip-path="url(#7b38a5c45c)"><path fill="url(#ad78a8ef41)" d="M 17.699219 36.441406 L 17.699219 58.890625 L 22.980469 58.890625 L 22.980469 36.441406 Z M 17.699219 36.441406 " fill-rule="nonzero"/></g></g><g clip-path="url(#dd401a4fae)"><g clip-path="url(#1d6d81c0ac)"><path fill="url(#91015e2d32)" d="M 28.261719 36.441406 L 28.261719 58.890625 L 33.542969 58.890625 L 33.542969 36.441406 Z M 28.261719 36.441406 " fill-rule="nonzero"/></g></g><g clip-path="url(#311926f14f)"><g clip-path="url(#0a5e8b4903)"><path fill="url(#e58c37a1e3)" d="M 1.191406 18.617188 L 1.191406 68.132812 L 50.050781 68.132812 L 50.050781 18.617188 Z M 1.191406 18.617188 " fill-rule="nonzero"/></g></g><g clip-path="url(#630a75c39d)"><g clip-path="url(#06e2f98a6b)"><path fill="url(#62a5f4fde3)" d="M 22.980469 18.617188 L 22.980469 23.898438 L 28.261719 23.898438 L 28.261719 18.617188 Z M 22.980469 18.617188 " fill-rule="nonzero"/></g></g><g fill="#105bbf" fill-opacity="1"><g transform="translate(56.14317, 59.53432)"><g><path d="M 2.496094 0 L 17.902344 0 C 18.292969 0 18.613281 -0.320312 18.613281 -0.714844 L 18.613281 -3.210938 C 18.613281 -3.601562 18.292969 -3.921875 17.902344 -3.921875 L 6.417969 -3.921875 C 6.027344 -3.921875 5.707031 -4.242188 5.707031 -4.636719 L 5.707031 -29.597656 C 5.707031 -29.988281 5.382812 -30.308594 4.992188 -30.308594 L 2.496094 -30.308594 C 2.105469 -30.308594 1.78125 -29.988281 1.78125 -29.597656 L 1.78125 -0.714844 C 1.78125 -0.320312 2.105469 0 2.496094 0 Z M 2.496094 0 "/></g></g></g><g fill="#105bbf" fill-opacity="1"><g transform="translate(75.292063, 59.53432)"><g><path d="M 2.496094 -25.105469 L 6.417969 -25.105469 C 6.8125 -25.105469 7.132812 -25.425781 7.132812 -25.816406 L 7.132812 -29.597656 C 7.132812 -29.988281 6.8125 -30.308594 6.417969 -30.308594 L 2.496094 -30.308594 C 2.105469 -30.308594 1.78125 -29.988281 1.78125 -29.597656 L 1.78125 -25.816406 C 1.78125 -25.425781 2.105469 -25.105469 2.496094 -25.105469 Z M 3.210938 0 L 5.707031 0 C 6.097656 0 6.417969 -0.320312 6.417969 -0.714844 L 6.417969 -21.789062 C 6.417969 -22.179688 6.097656 -22.5 5.707031 -22.5 L 3.210938 -22.5 C 2.816406 -22.5 2.496094 -22.179688 2.496094 -21.789062 L 2.496094 -0.714844 C 2.496094 -0.320312 2.816406 0 3.210938 0 Z M 3.210938 0 "/></g></g></g><g fill="#105bbf" fill-opacity="1"><g transform="translate(84.206818, 59.53432)"><g><path d="M 0.960938 0 L 4.171875 0 C 4.527344 0 4.8125 -0.105469 5.027344 -0.429688 L 10.019531 -7.273438 C 10.164062 -7.488281 10.339844 -7.558594 10.519531 -7.558594 C 10.699219 -7.558594 10.875 -7.488281 11.019531 -7.273438 L 15.976562 -0.429688 C 16.1875 -0.105469 16.476562 0 16.832031 0 L 20.039062 0 C 20.433594 0 20.648438 -0.179688 20.648438 -0.429688 C 20.648438 -0.570312 20.574219 -0.714844 20.46875 -0.855469 L 13.300781 -10.804688 C 13.195312 -10.984375 13.121094 -11.125 13.121094 -11.304688 C 13.121094 -11.445312 13.195312 -11.625 13.300781 -11.804688 L 20.46875 -21.644531 C 20.574219 -21.789062 20.648438 -21.929688 20.648438 -22.074219 C 20.648438 -22.324219 20.433594 -22.5 20.039062 -22.5 L 16.652344 -22.5 C 16.296875 -22.5 16.011719 -22.359375 15.796875 -22.074219 L 11.019531 -15.40625 C 10.875 -15.191406 10.699219 -15.082031 10.519531 -15.082031 C 10.339844 -15.082031 10.164062 -15.191406 10.019531 -15.40625 L 5.207031 -22.074219 C 4.992188 -22.394531 4.707031 -22.5 4.351562 -22.5 L 0.960938 -22.5 C 0.570312 -22.5 0.355469 -22.324219 0.355469 -22.074219 C 0.355469 -21.929688 0.429688 -21.789062 0.535156 -21.644531 L 7.703125 -11.804688 C 7.84375 -11.625 7.878906 -11.445312 7.878906 -11.304688 C 7.878906 -11.125 7.84375 -10.984375 7.703125 -10.804688 L 0.535156 -0.855469 C 0.429688 -0.714844 0.355469 -0.570312 0.355469 -0.429688 C 0.355469 -0.179688 0.570312 0 0.960938 0 Z M 0.960938 0 "/></g></g></g><g fill="#105bbf" fill-opacity="1"><g transform="translate(105.209979, 59.53432)"><g><path d="M 10.484375 0 L 11.625 0 C 15.691406 0 19.007812 -2.390625 20.289062 -5.882812 C 20.324219 -5.992188 20.324219 -6.0625 20.324219 -6.167969 C 20.324219 -6.488281 20.078125 -6.703125 19.683594 -6.703125 L 16.9375 -6.703125 C 16.546875 -6.703125 16.296875 -6.5625 16.082031 -6.203125 C 15.15625 -4.777344 13.585938 -3.921875 11.625 -3.921875 L 10.484375 -3.921875 C 7.632812 -3.921875 5.492188 -5.742188 5.207031 -8.738281 C 5.171875 -9.234375 5.421875 -9.484375 5.882812 -9.484375 L 20.148438 -9.484375 C 20.609375 -9.484375 20.859375 -9.734375 20.859375 -10.199219 L 20.859375 -13.265625 C 20.859375 -18.542969 16.902344 -22.5 11.625 -22.5 L 10.484375 -22.5 C 5.207031 -22.5 1.25 -18.542969 1.25 -13.265625 L 1.25 -9.234375 C 1.25 -3.957031 5.207031 0 10.484375 0 Z M 5.917969 -13.40625 C 5.492188 -13.40625 5.242188 -13.621094 5.242188 -14.015625 L 5.242188 -14.15625 C 5.597656 -16.796875 7.667969 -18.578125 10.484375 -18.578125 L 11.625 -18.578125 C 14.441406 -18.578125 16.511719 -16.796875 16.867188 -14.15625 C 16.9375 -13.691406 16.652344 -13.40625 16.1875 -13.40625 Z M 5.917969 -13.40625 "/></g></g></g><g fill="#105bbf" fill-opacity="1"><g transform="translate(127.318569, 59.53432)"><g><path d="M 2.496094 -25.105469 L 6.417969 -25.105469 C 6.8125 -25.105469 7.132812 -25.425781 7.132812 -25.816406 L 7.132812 -29.597656 C 7.132812 -29.988281 6.8125 -30.308594 6.417969 -30.308594 L 2.496094 -30.308594 C 2.105469 -30.308594 1.78125 -29.988281 1.78125 -29.597656 L 1.78125 -25.816406 C 1.78125 -25.425781 2.105469 -25.105469 2.496094 -25.105469 Z M 3.210938 0 L 5.707031 0 C 6.097656 0 6.417969 -0.320312 6.417969 -0.714844 L 6.417969 -21.789062 C 6.417969 -22.179688 6.097656 -22.5 5.707031 -22.5 L 3.210938 -22.5 C 2.816406 -22.5 2.496094 -22.179688 2.496094 -21.789062 L 2.496094 -0.714844 C 2.496094 -0.320312 2.816406 0 3.210938 0 Z M 3.210938 0 "/></g></g></g><g fill="#105bbf" fill-opacity="1"><g transform="translate(136.233321, 59.53432)"><g><path d="M 2.496094 0 L 4.992188 0 C 5.457031 0 5.707031 -0.25 5.707031 -0.714844 L 5.707031 -13.941406 C 5.992188 -16.6875 8.09375 -18.578125 10.984375 -18.578125 L 12.125 -18.578125 C 12.585938 -18.578125 12.835938 -18.828125 12.835938 -19.292969 L 12.835938 -21.789062 C 12.835938 -22.25 12.585938 -22.5 12.125 -22.5 L 10.984375 -22.5 C 9.378906 -22.5 7.84375 -22.039062 6.5625 -21.144531 C 6.382812 -21.039062 6.242188 -21.003906 6.132812 -21.003906 C 5.847656 -21.003906 5.707031 -21.183594 5.707031 -21.574219 L 5.707031 -21.789062 C 5.707031 -22.25 5.457031 -22.5 4.992188 -22.5 L 2.496094 -22.5 C 2.03125 -22.5 1.78125 -22.25 1.78125 -21.789062 L 1.78125 -0.714844 C 1.78125 -0.25 2.03125 0 2.496094 0 Z M 2.496094 0 "/></g></g></g><g fill="#105bbf" fill-opacity="1"><g transform="translate(150.140333, 59.53432)"><g><path d="M 8.164062 0 L 11.339844 0 C 13.085938 0 14.726562 -0.390625 16.082031 -1.140625 C 16.226562 -1.210938 16.332031 -1.25 16.4375 -1.25 C 16.6875 -1.25 16.832031 -1.070312 16.832031 -0.714844 C 16.832031 -0.320312 17.152344 0 17.542969 0 L 20.039062 0 C 20.433594 0 20.753906 -0.320312 20.753906 -0.714844 L 20.753906 -14.335938 C 20.753906 -19.078125 17.332031 -22.5 12.585938 -22.5 L 9.308594 -22.5 C 5.347656 -22.5 2.316406 -20.148438 1.425781 -16.617188 C 1.285156 -16.117188 1.675781 -15.691406 2.175781 -15.691406 L 4.777344 -15.691406 C 5.027344 -15.691406 5.277344 -15.867188 5.382812 -16.117188 C 6.027344 -17.582031 7.488281 -18.578125 9.308594 -18.578125 L 12.585938 -18.578125 C 14.90625 -18.578125 16.546875 -17.222656 16.796875 -14.550781 C 16.832031 -14.085938 16.476562 -13.765625 16.046875 -13.765625 L 8.164062 -13.765625 C 4.207031 -13.765625 1.25 -10.804688 1.25 -6.882812 C 1.25 -2.960938 4.207031 0 8.164062 0 Z M 8.164062 -3.921875 C 6.382812 -3.921875 5.171875 -5.136719 5.171875 -6.882812 C 5.171875 -8.628906 6.382812 -9.84375 8.164062 -9.84375 L 16.117188 -9.84375 C 16.511719 -9.84375 16.832031 -9.628906 16.832031 -9.378906 C 16.832031 -6.203125 14.511719 -3.921875 11.339844 -3.921875 Z M 8.164062 -3.921875 "/></g></g></g><g fill="#105bbf" fill-opacity="1"><g transform="translate(172.673844, 59.53432)"><g><path d="M 1.605469 0 L 12.660156 0 C 13.050781 0 13.371094 -0.320312 13.371094 -0.714844 L 13.371094 -3.210938 C 13.371094 -3.601562 13.050781 -3.921875 12.660156 -3.921875 L 9.804688 -3.921875 C 9.34375 -3.921875 9.09375 -4.171875 9.09375 -4.636719 L 9.09375 -25.675781 C 9.09375 -26.136719 9.34375 -26.386719 9.804688 -26.386719 L 12.660156 -26.386719 C 13.050781 -26.386719 13.371094 -26.707031 13.371094 -27.101562 L 13.371094 -29.597656 C 13.371094 -29.988281 13.050781 -30.308594 12.660156 -30.308594 L 1.605469 -30.308594 C 1.210938 -30.308594 0.890625 -29.988281 0.890625 -29.597656 L 0.890625 -27.101562 C 0.890625 -26.707031 1.210938 -26.386719 1.605469 -26.386719 L 4.457031 -26.386719 C 4.921875 -26.386719 5.171875 -26.136719 5.171875 -25.675781 L 5.171875 -4.636719 C 5.171875 -4.171875 4.921875 -3.921875 4.457031 -3.921875 L 1.605469 -3.921875 C 1.210938 -3.921875 0.890625 -3.601562 0.890625 -3.210938 L 0.890625 -0.714844 C 0.890625 -0.320312 1.210938 0 1.605469 0 Z M 1.605469 0 "/></g></g></g><g fill="#105bbf" fill-opacity="1"><g transform="translate(186.937452, 59.53432)"><g><path d="M 10.484375 0 L 11.625 0 C 16.902344 0 20.859375 -3.957031 20.859375 -9.234375 L 20.859375 -13.265625 C 20.859375 -18.542969 16.902344 -22.5 11.625 -22.5 L 10.484375 -22.5 C 5.207031 -22.5 1.25 -18.542969 1.25 -13.265625 L 1.25 -9.234375 C 1.25 -3.957031 5.207031 0 10.484375 0 Z M 10.484375 -3.921875 C 7.382812 -3.921875 5.171875 -6.132812 5.171875 -9.234375 L 5.171875 -13.265625 C 5.171875 -16.367188 7.382812 -18.578125 10.484375 -18.578125 L 11.625 -18.578125 C 14.726562 -18.578125 16.9375 -16.367188 16.9375 -13.265625 L 16.9375 -9.234375 C 16.9375 -6.132812 14.726562 -3.921875 11.625 -3.921875 Z M 10.484375 -3.921875 "/></g></g></g><g fill="#105bbf" fill-opacity="1"><g transform="translate(209.046041, 59.53432)"><g><path d="M 11.589844 0 L 14.085938 0 C 14.476562 0 14.796875 -0.320312 14.796875 -0.714844 L 14.796875 -25.675781 C 14.796875 -26.066406 15.121094 -26.386719 15.511719 -26.386719 L 24.605469 -26.386719 C 24.996094 -26.386719 25.316406 -26.707031 25.316406 -27.101562 L 25.316406 -29.597656 C 25.316406 -29.988281 24.996094 -30.308594 24.605469 -30.308594 L 1.070312 -30.308594 C 0.675781 -30.308594 0.355469 -29.988281 0.355469 -29.597656 L 0.355469 -27.101562 C 0.355469 -26.707031 0.675781 -26.386719 1.070312 -26.386719 L 10.164062 -26.386719 C 10.554688 -26.386719 10.875 -26.066406 10.875 -25.675781 L 10.875 -0.714844 C 10.875 -0.320312 11.195312 0 11.589844 0 Z M 11.589844 0 "/></g></g></g></svg>